<svg xmlns="http://www.w3.org/2000/svg" height="101.067" width="343.84" xml:space="preserve"><defs><clipPath id="a" clipPathUnits="userSpaceOnUse"><path d="M104.422 378.988c0-151.636 122.937-274.547 274.566-274.547 151.633 0 274.563 122.911 274.563 274.547 0 151.621-122.93 274.563-274.563 274.563-151.629 0-274.566-122.942-274.566-274.563"/></clipPath></defs><path style="fill:#fab20b;fill-opacity:1;fill-rule:nonzero;stroke:none" d="M771.711 683.238h185.918L1095.59 243.27l145.54 439.968h167.4L1187.3 75.871H986.238L771.711 683.238M1780.38 492.281c-7.58 61.399-50.48 84.129-98.43 84.129-101.78 0-132.92-93.39-132.92-204.43 0-37.011.83-190.121 131.23-190.121 89.17 0 98.44 64.77 101.79 88.332h174.98c-.84-190.113-194.32-206.113-273.39-206.113-58.89 0-163.19 10.094-230.5 80.774-66.45 70.66-78.25 167.398-78.25 230.5 0 83.277 19.36 166.558 76.56 231.339 62.24 70.661 142.17 89.18 230.5 89.18 98.43 0 173.3-23.562 221.25-74.031 48.79-52.16 49.64-106.852 50.47-129.559h-173.29m390.35 190.957V322.352c0-32.813 2.53-66.461 19.37-91.704 22.7-33.636 62.23-49.628 103.47-49.628 106.82 0 121.14 86.652 121.14 147.21v355.008h164.04V331.602c0-67.301-9.25-140.481-47.11-185.082-58.9-72.34-167.4-86.63-243.95-86.63-286.88 0-287.71 178.329-287.71 277.598l.83 345.75h169.92" transform="matrix(.13333 0 0 -.13333 0 101.067)"/><path style="fill:#fab80a;fill-opacity:1;fill-rule:nonzero;stroke:none" d="M757.969 378.98C757.969 169.68 588.289 0 378.988 0 169.68 0 0 169.68 0 378.98c0 209.301 169.68 378.989 378.988 378.989 209.301 0 378.981-169.688 378.981-378.989" transform="matrix(.13333 0 0 -.13333 0 101.067)"/><path style="fill:#181210;fill-opacity:1;fill-rule:nonzero;stroke:none" d="M378.988 743.859c-201.519 0-364.86-163.359-364.86-364.871 0-201.508 163.341-364.867 364.86-364.867 201.532 0 364.871 163.359 364.871 364.867 0 201.512-163.339 364.871-364.871 364.871m0-639.41c-151.629 0-274.558 122.903-274.558 274.539 0 151.633 122.929 274.563 274.558 274.563 151.641 0 274.582-122.93 274.582-274.563 0-151.636-122.941-274.539-274.582-274.539" transform="matrix(.13333 0 0 -.13333 0 101.067)"/><path style="fill:#fff;fill-opacity:1;fill-rule:nonzero;stroke:none" d="M188.191 106.309c-1.8-1.207-3.082-2.137-3.671-3.071-.739-1.179-.918-2.019-.692-2.867.461-1.48 2.141-2.8 3.192-4.68.621-1.07.859-1.672.429-2.351-.621-.969-1.371-.512-2-.09-2.09 1.328-3.89 3.148-5.98 4.469-2.11 1.32-4.528 2.172-6.61 3.472-.558.36-1.429.887-.808 1.911.621.957 1.918.148 3.898.539 2.289.461 4.02 1.711 8.031 4.359l32.942 21.578c3.558 2.363 4.379 2.012 5.058 1.563.93-.582.93-1.52.571-4.153l-6.129-44.09c-.543-3.707.879-5.457 1.539-6.757.551-1.032 1.23-1.461.598-2.461-.618-.961-1.231-.578-2.11-.008-2.789 1.758-5.25 4.008-8.039 5.77-2.781 1.75-5.879 3.007-8.672 4.738-.418.28-1.539.98-.918 1.968.629 1.012 1.77.614 2.918.223 2.141-.723 3.102.39 4 1.828.703 1.13.84 2.852 1.051 4.27l3.57 24.64c.403 2.743.5 3.422.2 3.61-.379.25-1-.059-2.207-.848l-20.161-13.562m-8.679 44.519c2.918 3.492.726 7.141-.391 8.301-.691.652-.793 1.441-.043 2.312.762.887 2.383-.472 3.992-1.832 1.739-1.461 3.602-3.8 5.828-5.66 2.243-1.91 4.852-3.347 7.09-5.23 1.063-.918 1.903-1.598 1.141-2.508-.738-.891-1.93-.359-2.629-.07-2.75 1.168-4.949-.621-6.5-2.461l-21.211-25.16c-2.93-3.469-1.867-6.079.332-8.231.68-.668.801-1.43.051-2.328-.762-.902-2.371.48-4 1.828-2.242 1.891-4.102 4.211-6.344 6.102-2.226 1.871-4.848 3.347-7.078 5.23-.781.649-1.621 1.379-.871 2.258.762.891 2.5-.098 3.199-.399 2.75-1.171 4.652.872 6.211 2.7l21.223 25.148m-38.813-9.297c-3.219-2.871-2.551-5.59-.82-8.203.519-.797.59-1.539-.289-2.316-.531-.481-1.059-.563-2.238.758-1.161 1.3-2.051 3.179-5.512 7.039-2.629 2.941-6.692 6.601-8.828 8.98-6.543 7.332-11.961 16.121-2.961 24.172 3.711 3.309 7.269 3.168 10.597 2.109 1.571-.55 3.313-1.859 3.864-1.351.808.73 6.258 16.59 6.867 21.961.109 1.058.043 1.789-.399 2.281-.531.617-1.242 1.078-1.66 1.559-.59.671-.41 1.218.2 1.761 2.339 2.09 8.421-4.062 10.031-5.859 1.418-1.594 2.027-4.461.918-7.621l-5.957-16.813c-.864-2.437-1.453-4.539.347-6.566 1.289-1.422 1.903-1.551 2.602-.922l9.269 8.32c4.469 3.981 3.79 6.719 1.918 9.149-.578.761-.589 1.531.282 2.332.711.629 1.461.109 3.711-2.41 1.949-2.172 3.461-4.743 5.398-6.911 1.973-2.171 4.359-3.968 6.301-6.152.691-.769 1.43-1.609.551-2.398-.871-.77-1.981-.102-2.629.308-2.571 1.571-5.223.352-7.024-1.269zm1.531 16.297c.649.57 1.891 1.703-1.218 5.192-4.403 4.921-8.481 4.89-13.942 0-3.922-3.508-5.66-9.258-1.449-13.969 2.57-2.891 3.891-2.602 5.859-.852l10.75 9.629m-33.878 68.801c-3.891-2.379-3.454-5.457-2.102-8.238.371-.719.219-1.493-.77-2.09-.878-.531-1.601.379-3.21 3.019-1.532 2.489-2.68 5.219-4.22 7.719-1.53 2.512-3.429 4.781-4.948 7.27-.852 1.351-.75 2.019-.114 2.39.98.629 1.961-.258 2.52-.75 2.242-1.98 4.961-1.09 7.023.16l9.117 5.602c1 .578 12.063-7.633 16.993-15.711 7.828-12.801 5.289-27.148-7.391-34.91-13.359-8.168-29.781-4.488-37.39 7.93-4.59 7.5-4.61 14.949-5.13 15.832-.968 1.558-2.55-.161-3.71 1.687-.258.43 0 .871.28 1.121l8.2 6.371c.918.75 2.191 1.86 2.7 2.168.929.571 1.679.61 2.062-.027.457-.75-.621-2.344-.903-2.863-6.18-11.348-4.48-16.379-1.57-21.118 6.352-10.382 16.481-8.82 26.461-2.703 9.051 5.524 19.398 15.313 12.852 25.961-3.403 5.59-7.082 7.121-13.012 3.461l-3.738-2.281m-10.02 37.812c4.168 1.789 3.859 6.039 3.359 7.579-.312.902-.07 1.628 1.008 2.101 1.071.457 1.903-1.5 2.742-3.43.899-2.089 1.528-5.011 2.68-7.691 1.16-2.711 2.859-5.172 4.02-7.859.55-1.282.98-2.27-.09-2.75-1.082-.461-1.91.539-2.391 1.109-1.949 2.281-4.711 1.66-6.93.719L72.46 241.18c-4.16-1.809-4.39-4.602-3.37-7.508.3-.902.07-1.652-1.012-2.113-1.09-.457-1.918 1.48-2.758 3.441-1.16 2.68-1.78 5.602-2.93 8.289-1.171 2.699-2.85 5.16-4.011 7.859-.418.93-.848 1.922.223 2.403 1.09.469 2.207-1.211 2.699-1.789 1.93-2.274 4.539-1.301 6.77-.364l30.261 13.043m-35.754 19.911c-1.09-1.872-2.078-3.68-1.988-4.051.101-.352.36-.512 2.058-.082l25.32 6.383c3.493.859 5.813 2.718 6.012 6.41.122 1.929-.601 4.218.739 4.558 1.422.36 1.851-1.34 2.172-2.609.62-2.481.68-5.121 1.3-7.609.637-2.473 1.829-4.813 2.457-7.301.172-.711.364-1.492-.77-1.762-1.14-.289-1.698.461-2.538 1.383-2.918 3.187-5.262 3.808-9.16 2.816l-26.739-6.726c-2.722-.684-6.34-2.731-6.96-5.692-.54-2.609-.5-3.66-1.641-3.949-1.14-.293-1.238.141-1.36.629-.55 2.148-.8 4.34-1.34 6.469-.519 2.133-1.35 4.203-1.89 6.32-.39 1.563-.3 2.102.25 2.93l21.54 34.609c.741 1.242 1.41 2.481 1.3 2.902-.14.571-1.149.399-2.14.141l-16.098-4.07c-4.692-1.16-8.942-2.531-8.833-7.192.04-1.961.032-3.988-1.109-4.269-1.14-.281-1.488 1.051-1.8 2.34-.63 2.492-.68 5.129-1.31 7.601-.62 2.5-1.812 4.828-2.44 7.297-.18.692-.391 1.481.761 1.762 1.129.289 1.7-.469 2.54-1.391 2.917-3.199 5.237-3.738 9.14-2.758l34.207 8.618c3.113.8 4.031.711 4.254-.118.199-.793-1.121-3.089-2.442-5.312l-23.492-38.277m14.312 70.359c4.508.43 5.5 4.59 5.481 6.211 0 .949.438 1.566 1.617 1.687 1.172.121 1.371-1.988 1.582-4.109.22-2.25-.09-5.23.2-8.148.289-2.911 1.152-5.774 1.44-8.692.13-1.371.25-2.469-.92-2.582-1.161-.117-1.65 1.094-1.93 1.801-1.16 2.769-3.981 3-6.38 2.769L45.2 340.43c-4.52-.442-5.59-3.039-5.509-6.141.02-.949-.433-1.57-1.601-1.699-1.16-.102-1.371 2-1.57 4.121-.282 2.91.011 5.879-.27 8.809-.29 2.902-1.16 5.75-1.45 8.671-.1 1.02-.198 2.11.97 2.231 1.16.109 1.718-1.82 2.011-2.524 1.149-2.769 3.918-2.636 6.34-2.398l32.77 3.211M36.23 392.25c-1.859 1.039-2.511 1.43-2.48 2.09.02.301.7.699 1.59 1.101l40.57 16.539c2.828 1.2 6.371 2.071 7.309 4.829.66 1.941.941 3.031 2.101 2.98 1.18-.059 1.14-.777 1.09-1.988-.148-3.512-.89-6.981-1.031-10.192-.14-3.218.3-6.757.14-10.25-.05-1.019-.558-1.437-1.019-1.418-.86.039-1.488.868-1.52 1.969-.289 1.93-1.91 3.16-3.82 3.238-1.82.09-8.21-1.839-9.34-2.886-1-.922-1.351-2.282-1.5-5.864l-.492-11.187c-.168-3.723 7.133-6.09 10.281-6.242 1.082-.047 2.551 1.742 3.07 3.25.673 2.011 1.372 4.703 2.54 4.64 1.172-.039 1.14-.847 1.09-2.019-.118-2.488-.801-4.949-.918-7.442-.102-2.476.379-4.988.27-7.468-.052-1.032-.079-1.91-1.263-1.852-1.167.043-1.527 1.902-2.218 2.953-.82 1.289-1.59 1.899-2.73 2.539zm24.711-9.488c1-.571 1.79-.891 2.02-.903.648-.031.91 1.219 1 3.032l.34 7.89c.097 2.348-.012 3.231-.301 3.258-.441.012-1.77-.449-2.96-.988L50.8 390.52c-.98-.469-1.5-.731-1.519-1.25-.023-.442 1.489-1.09 1.848-1.25l9.812-5.258m7.028 118.308c1.383-.261 2.941-.371 3.793-.64.758-.239 1.558-.871 1.34-1.571-.262-.839-2.192-1.07-2.75-1.211-9.133-1.957-15.051-6.628-16.954-12.707-2.789-8.863.192-16.941 15.43-21.711 10.762-3.378 23.043.29 25.98 9.719 1.84 5.871.563 12.25-1.988 17.11-.57 1.121-1.629 2.589-1.289 3.722.18.559.59.649 1.219.449 2.102-.652 11.18-11.789 6.578-26.449-3.68-11.73-16.02-21.519-30.91-16.851-19.477 6.121-22.437 21.39-18.68 33.398C52.16 492 57.7 496.711 58.29 498.59c.54 1.75-1.808 1.801-1.2 3.762.192.628.68.718 1.052.679l9.828-1.961m7.909 44.02c7.172 13.16 21.34 18.859 34.961 11.441 14.461-7.871 16.64-25.89 9.379-39.23-7.18-13.18-21.219-18.192-34.258-11.09-13.832 7.508-17.36 25.508-10.082 38.879m43.09-23.211c4.133 7.59-1.071 17.332-10.25 22.32-8.75 4.77-25.68 7.153-31.27-3.129-4.148-7.582 1.063-17.332 10.25-22.32 8.73-4.762 25.672-7.16 31.27 3.129m-9.641 54.473c-2.098 1.808-5.719 3.769-8.488 2.597-2.469-1.07-3.309-1.687-4.192-.937-.718.629-.699.988-.257 1.488 1.43 1.672 3.097 3.148 4.531 4.801 1.437 1.64 2.648 3.508 4.09 5.179.949 1.098 1.449 1.34 2.566 1.051l31.793-8.64c3.219-.84 4.488-1.27 4.641-1.11.277.34-.391 1.68-.973 3.239l-12.687 32.171c-.641 1.61-.571 1.93-.18 2.348 1.449 1.672 3.09 3.133 4.527 4.801 1.442 1.648 2.641 3.5 4.09 5.18.289.332.711.261 1.27-.309.89-.781.339-1.961-.528-4.199-1.062-2.551-1.269-3.922 2-6.75l19.629-16.992c4.59-3.95 7.82-6.282 13.211-3.391 1.438.769 2.149 1.043 3.039.281.891-.769-.082-1.898-1.039-3.019-2.121-2.012-4.043-4.231-6.172-6.243-1.699-2.41-3.597-4.617-5.301-7-.957-1.109-1.91-2.226-2.796-1.457-.891.758-.731 1.508-.274 2.95.594 1.898-.308 2.871-3.34 5.507l-17.707 15.313c-.551.469-1.59 1.277-1.793 1.059-.328-.391.16-1.391.973-3.348l13.098-30.594c.441-1.047.73-2.269.16-2.937-.571-.661-1.418-.411-2.219-.211l-32.781 9.5c-1.047.34-2.168.621-2.489.242-.3-.344-.16-.641.879-1.551l14.602-12.633c3.48-3.019 7.078-4.668 11.82-2.109 1.09.609 2.008.883 2.891.109.898-.769.078-1.699-.402-2.258-1.668-1.941-3.801-3.48-5.461-5.421-1.68-1.93-2.918-4.239-4.598-6.188-.473-.551-.992-1.16-1.883-.402-.887.769-.59 1.679-.308 2.89.941 4.219-.04 6.321-3.098 8.942l-20.844 18.051m54.242 58.089c-1.621 2.278-4.672 5.028-7.64 4.528-2.641-.449-3.61-.867-4.282.09-.558.781-.437 1.113.09 1.472 1.782 1.278 3.75 2.321 5.532 3.59 1.789 1.277 3.39 2.801 5.199 4.098 1.179.851 1.722.961 2.742.429l28.867-15.878c2.942-1.59 4.07-2.301 4.25-2.18.363.269.031 1.738-.18 3.379l-4.777 34.261c-.23 1.719-.07 2.008.399 2.321 1.789 1.277 3.742 2.308 5.531 3.59 1.777 1.281 3.398 2.789 5.179 4.089.36.27.758.09 1.168-.601.672-.957-.117-1.981-1.5-3.949-1.628-2.239-2.148-3.52.352-7.039l15.102-21.141c3.519-4.93 6.117-7.922 12.039-6.398 1.589.41 2.339.5 3.007-.454.692-.957-.507-1.796-1.699-2.648-2.558-1.469-4.929-3.172-7.48-4.629-2.219-1.941-4.598-3.641-6.797-5.582-1.192-.848-2.391-1.699-3.07-.738-.68.937-.364 1.621.429 2.918 1.02 1.711.379 2.859-1.961 6.133l-13.609 19.058c-.422.602-1.25 1.61-1.481 1.449-.421-.289-.191-1.379.149-3.488l5.543-32.812c.18-1.129.18-2.387-.531-2.899-.711-.5-1.469-.07-2.2.32l-29.632 16.942c-.957.578-1.969 1.109-2.379.816-.379-.258-.321-.566.5-1.707l11.211-15.703c2.679-3.75 5.789-6.219 11-4.828 1.211.309 2.16.371 2.839-.578.68-.953-.32-1.684-.921-2.102-2.09-1.492-4.508-2.5-6.59-3.98-2.09-1.5-3.828-3.461-5.918-4.949-.59-.422-1.25-.891-1.93.058-.68.949-.172 1.762.379 2.871 1.898 3.879 1.441 6.149-.891 9.442l-16.039 22.429m82.071 63.469c13.828 5.86 28.48 1.488 34.507-12.808 6.43-15.184-3.089-30.653-17.109-36.59-13.828-5.864-27.961-1.012-33.75 12.687-6.129 14.5 2.313 30.789 16.352 36.711m19.289-45.019c7.961 3.347 9.961 14.23 5.879 23.879-3.879 9.171-15.668 21.589-26.438 17.031-7.973-3.36-9.973-14.231-5.902-23.871 3.89-9.18 15.66-21.61 26.461-17.039m33.8 46.449c-1.82 1.191-3.601 2.262-3.96 2.18-.348-.09-.532-.329-.192-2.051l5.223-25.617c.719-3.5 2.469-5.911 6.14-6.293 1.911-.207 4.25.421 4.52-.938.301-1.449-1.422-1.801-2.723-2.07-2.5-.492-5.129-.43-7.636-.949-2.512-.512-4.903-1.582-7.422-2.114-.711-.136-1.489-.289-1.731.852-.238 1.148.551 1.68 1.512 2.48 3.32 2.758 4.039 5.071 3.238 9.02l-5.508 27.051c-.55 2.711-2.441 6.441-5.351 7.187-2.59.672-3.641.684-3.871 1.832-.239 1.149.203 1.231.703 1.309 2.137.441 4.348.59 6.508 1.031 2.14.43 4.242 1.16 6.379 1.629 1.589.312 2.14.191 2.929-.379l33.614-23.121c1.207-.801 2.41-1.52 2.828-1.438.57.11.429 1.129.242 2.149l-3.32 16.281c-.961 4.731-2.133 9.051-6.782 9.141-1.949.058-4 .168-4.242 1.308-.226 1.149 1.141 1.43 2.434 1.68 2.5.5 5.129.43 7.648.941 2.512.508 4.899 1.598 7.41 2.129.719.16 1.5.309 1.739-.851.242-1.129-.547-1.668-1.508-2.457-3.332-2.774-3.981-5.071-3.18-9.012l7.039-34.57c.641-3.16.531-4.09-.332-4.25-.777-.168-3.008 1.242-5.18 2.679L298.73 699.34m52.372 18.351c-.832 2.489-2.133 3.168-3.153 3.86-.801.508-1.668.597-1.648 1.769.019 1.168.969 1.168 1.918 1.168 2.851-.058 5.703-.687 8.551-.726 2.859-.063 5.73.488 8.582.418 1.226-.02 1.898-.032 1.886-1.192-.027-1.187-1.207-1.379-2.308-1.738-2.051-.621-2.371-1.922-2.391-3.32 0-.66.691-2.051 1.531-4.629l7.95-24.071c.21-.671.421-1.332.628-1.332.153 0 .602.793.911 1.512l7.582 16.059-3.832 11.781c-.77 2.5-2.137 3.18-3.161 3.859-.796.52-1.668.602-1.66 1.789.032 1.161.981 1.153 1.934 1.153 2.859-.051 5.699-.68 8.547-.742 2.859-.039 5.722.5 8.582.453 1.25-.032 1.898-.043 1.879-1.211-.02-1.172-1.192-1.371-2.289-1.723-2.063-.629-2.313-2.019-2.332-2.969-.02-1.168 1.043-3.679 1.531-5l7.551-22.16c.339-.961.488-1.39.769-1.398.531 0 .988 1.219 1.52 2.609l7.039 18.91c.769 2.051 1.172 3.95 1.203 5.559.039 3.223-3.992 2.922-5.582 3.961-1.309.828-2.02 1.41-2.012 2.09.024 1.172.891 1.148 1.621 1.16 2.5-.039 4.981-.668 7.461-.711 2.481-.039 4.988.5 7.481.441.648-.011 1.679-.019 1.66-1.199-.02-1.16-1.551-1.141-3.039-2.5-2.09-1.859-2.391-3.039-4.391-7.98l-14.34-35.27c-1.59-3.851-2.191-4.301-2.922-4.269-.879.007-1.531.378-2.429 3.109l-7.961 23.328c-.418 1.262-.778 1.992-1 2-.297 0-.61-.719-1.36-2.258l-10.539-21.84c-1.648-3.5-2.191-3.921-3.058-3.91-.953 0-1.321.449-2.364 3.481l-14.546 41.679m81.457-10.492c.73 3.52 1.48 8.973-1.45 9.949-2.16.743-3.539 1.704-3.3 2.832.242 1.168 1.453.918 2.89.598 5.371-1.859 10.93-2.777 16.442-3.996 5.5-1.141 11.148-1.711 16.668-2.863 1.64-.34 3.07-.629 2.781-2.078-.328-1.563-.93-3.082-1.27-4.653-.332-1.59-.371-3.226-.691-4.789-.168-.789-.5-1.308-1.578-1.09-1.153.243-1.09 1.563-1.031 2.223.441 4.629-1.258 6.918-9.649 8.648l-4.641.981c-2.011.391-2.652-.141-3.242-2.93l-2.578-12.543c-.238-1.136.891-1.75 3.762-2.359 4.156-.84 7.547-.277 9.348 2.562 1.199 1.848 1.531 1.989 2.261 1.86 1.071-.242.86-1.262.649-2.25-.442-2.153-1.18-4.231-1.621-6.383-.438-2.148-.598-4.359-1.047-6.508-.211-.992-.422-2-1.793-1.73-1.078.23-.629 2.379-1.188 3.992-1.179 3.308-3.172 4.18-7.332 5.027-3.429.719-4.269-.07-4.64-1.871l-2.547-12.25c-1.082-5.308-.332-6.289 3.468-7.066 7.532-1.563 12.161-.133 15.09 1.726 2.918 1.864 4.129 4.141 5.289 3.903.86-.172 1.02-.871.871-1.602-.3-1.418-1.449-4.109-2.261-5.437-1.528-2.672-5.469-5.5-8.84-4.813-4.801.992-9.469 2.563-14.277 3.563-4.801 1.007-9.723 1.418-14.524 2.429-2.219.457-3.297.668-3.058 1.809.25 1.148 1.769 1.359 3.21 1.73 2.59.66 3.372 2.289 4.211 6.379l5.618 27m71.82-8.871c1.59 1.422 2.172 1.902 2.781 1.664.27-.121.442-.883.52-1.871l2.23-43.742c.192-3.07-.16-6.731 2.11-8.488 1.609-1.282 2.558-1.903 2.121-2.981-.43-1.09-1.11-.82-2.2-.39-3.261 1.308-6.3 3.152-9.281 4.351-3.012 1.188-6.469 1.949-9.738 3.258-.953.383-1.184 1.012-1.012 1.422.32.82 1.32 1.129 2.371.789 1.91-.352 3.598.781 4.309 2.531.691 1.699.98 8.359.371 9.777-.539 1.231-1.711 2.024-5.039 3.364l-10.402 4.156c-3.461 1.371-8.098-4.707-9.282-7.648-.398-1.02.774-2.989 2.051-3.961 1.691-1.309 3.973-2.86 3.539-3.95-.43-1.078-1.168-.789-2.258-.347-2.308.929-4.41 2.386-6.711 3.328-2.32.922-4.847 1.281-7.16 2.211-.949.379-1.758.699-1.32 1.789.43 1.078 2.301.82 3.512 1.121 1.48.348 2.32.879 3.3 1.75zm-17.117-20.176c-.852-.754-1.434-1.39-1.512-1.593-.238-.618.82-1.278 2.531-1.969l7.34-2.93c2.168-.859 3.027-1.058 3.141-.781.168.402.179 1.812.066 3.121l-.887 11.16c-.14 1.07-.211 1.649-.679 1.852-.422.148-1.524-1.051-1.793-1.344l-8.207-7.516m55.547-5.422c2.382 3.86 1.07 6.489-1.539 8.102-.809.477-1 1.297-.469 2.156.398.633 1.14.864 1.82.43 3-1.848 5.731-4.227 8.731-6.078 3.046-1.879 6.339-3.231 8.718-4.692.86-.539 1.801-1.117 1.192-2.109-.621-1-1.871-.66-2.614-.449-2.898.75-5.097-1.149-6.378-3.211l-16.649-26.969c-2.941-4.73-2.543-5.75.641-7.719 6.547-4.031 11.379-4.269 14.769-3.531 3.399.75 5.348 2.379 6.899 1.418.879-.527.742-2.008-.11-3.379-3.148-5.097-10.519-6.051-15.39-3.051-4.168 2.582-12.399 8.352-16.559 10.93-2.312 1.442-4.922 2.352-7.23 3.774-1.422.886-2.621 1.609-2 2.609.609 1.008 1.699.508 3.597.527 2.961.063 4.633 2.231 5.903 4.274l16.668 26.968m46.562-29.48c1.649 2.039.668 3.609-2.051 5.84-5.429 4.488-8.218 6.039-14.242 1.59-.34-.289-.828-.168-1.437.332-.789.66-.743 1.187-.469 1.527.418.5 1.18 1.199 1.769 1.781l5.297 5.301c.953.918 1.473.969 2.793-.07 5.75-4.762 11.078-9.91 16.86-14.653 5.75-4.757 11.937-9.097 17.597-13.769 1.41-1.18 1.453-1.481.032-3.539l-4.192-6.231c-.269-.449-.59-.949-.906-1.339-.281-.34-1.024-.098-1.473.269-.687.563-.828.973-.609 1.352 3.191 6.757 1.148 9.211-4.301 13.668-3.09 2.57-4.559 2.742-6.098.882l-21.601-26.23c-3.668-4.473.211-7.57 1.379-9.961.383-.801 1.48-1.41.453-2.648-.742-.911-1.422-.364-2.094.199-3.34 2.75-6.398 6.027-9.859 8.879-3.449 2.84-7.27 5.218-10.598 7.98-.68.559-1.371 1.11-.621 2.02 1.02 1.242 1.859.281 2.699.058 2.563-.699 6.36-3.918 10.039.543l21.633 26.219m43.238-63.191c1.641-1.957 2.7-2.309 4-1.239l7.77 6.45c3.48 2.91 2.891 5.679 1.109 8.16-.558.789-.527 1.57.364 2.308.91.762 2.25-.879 3.609-2.539 1.879-2.23 3.301-4.859 5.18-7.121 1.859-2.25 4.187-4.129 6.07-6.359.648-.77 1.359-1.617.437-2.367-.898-.75-1.968-.032-2.617.398-1.953 1.32-4.859.801-7.043-1.02l-25.328-21.058c-3.48-2.91-2.91-5.66-1.109-8.172.539-.77.519-1.57-.371-2.309-.891-.75-2.25.887-3.61 2.481-1.879 2.269-3.289 4.887-5.172 7.137-1.867 2.269-4.199 4.132-6.07 6.402-.648.789-1.359 1.617-.457 2.379.91.75 1.988.019 2.617-.399 2.5-1.632 5.203-.519 7.063 1.02l10.801 9c1.796 1.488 1.589 1.98.238 3.609l-11.481 13.782c-.8.957-1.949.296-2.738-.372l-10.91-9.082c-3.492-2.91-2.922-5.66-1.109-8.16.546-.789.539-1.547-.383-2.308-.891-.75-2.25.89-3.61 2.511-1.871 2.25-3.289 4.86-5.168 7.129-1.863 2.239-4.191 4.129-6.05 6.379-.68.789-1.379 1.641-.493 2.391.922.75 2 .019 2.633-.391 2.5-1.648 5.199-.539 7.071 1l25.296 21.071c3.5 2.902 2.922 5.66 1.122 8.16-.551.781-.54 1.558.371 2.308.89.742 2.25-.867 3.621-2.527 1.867-2.242 3.289-4.871 5.168-7.121 1.871-2.25 4.191-4.129 6.058-6.371.653-.77 1.352-1.641.473-2.391-.91-.738-1.992-.027-2.621.41-2.512 1.621-5.199.524-7.07-1.027l-7.758-6.461c-1.121-.93-1.223-2.059-.012-3.531l10.109-12.16m44.813-44.981c4.156 1.82 4.558 4.731 3.328 7.543-.391.867-.078 1.641.781 2.02.938.418 1.528-.051 2.981-3.321 1.187-2.679 1.828-5.601 3-8.281 1.179-2.68 2.886-5.117 4.09-7.801.699-1.609.437-2.136-.223-2.429-.82-.348-1.488.48-2.508 1.312-2.043 1.75-4.562 1.828-6.961.77l-20.84-9.172c-7.84-3.43-11.172-11.129-7.55-19.379 5.269-12 16.16-10.731 23.601-7.461l17.078 7.519c3.41 1.5 4.801 4.192 3.371 7.961-.429 1.161-.398 2.379.66 2.832.809.379 1.442-.32 2.168-1.972.891-2.008 1.5-4.149 2.383-6.16.879-2.008 2.039-3.899 2.918-5.918.59-1.352.41-1.661-.39-2.012-1.071-.469-1.668.699-2.649 1.633-1.648 1.597-3.09 1.609-8.91-.973l-14.281-6.258c-14.879-6.543-25.828-2.179-32.489 12.957-5.402 12.274-3.39 21.723 9.34 27.313l21.102 9.277m20.738-71.328c1.168 1.828 2.192 3.621 2.11 3.988-.059.34-.329.532-2.059.141l-25.5-5.57c-3.512-.778-5.883-2.579-6.211-6.231-.18-1.898.48-4.238-.879-4.547-1.422-.301-1.812 1.41-2.07 2.707-.563 2.5-.531 5.121-1.082 7.633-.539 2.488-1.66 4.867-2.219 7.367-.148.731-.32 1.512.82 1.762 1.141.25 1.7-.531 2.508-1.488 2.801-3.274 5.133-3.961 9.063-3.102l26.937 5.891c2.723.597 6.41 2.527 7.121 5.461.629 2.609.629 3.636 1.781 3.898 1.141.238 1.231-.18 1.329-.672.472-2.16.652-4.359 1.132-6.5.469-2.136 1.207-4.218 1.688-6.386.332-1.563.242-2.102-.34-2.891l-22.609-33.949c-.782-1.223-1.489-2.41-1.391-2.84.121-.57 1.133-.434 2.133-.211l16.226 3.559c4.723 1.031 9.024 2.25 9.051 6.921.02 1.95.102 3.981 1.242 4.231 1.137.258 1.438-1.113 1.719-2.383.551-2.5.531-5.129 1.07-7.617.551-2.5 1.668-4.891 2.211-7.41.161-.711.321-1.492-.82-1.75-1.141-.242-1.672.539-2.492 1.476-2.801 3.293-5.117 3.91-9.051 3.043l-34.437-7.543c-3.161-.668-4.071-.566-4.262.282-.168.781 1.211 3.031 2.609 5.21l24.672 37.52m-16.469-69.859c-4.519-.313-5.652-4.411-5.679-6.02-.024-.961-.492-1.582-1.66-1.66-1.172-.07-1.313 2.039-1.454 4.148-.148 2.282.231 5.231.032 8.129-.18 2.953-.961 5.832-1.16 8.742-.11 1.391-.168 2.489 1 2.559 1.171.082 1.621-1.129 1.878-1.848 1.082-2.793 3.891-3.113 6.301-2.961l32.852 2.219c4.519.301 5.668 2.86 5.679 5.942.02.961.5 1.578 1.649 1.66 1.18.09 1.32-2.039 1.473-4.16.187-2.922-.211-5.879 0-8.813.187-2.898.968-5.777 1.168-8.699.07-1.027.14-2.129-1.032-2.199-1.16-.078-1.668 1.871-1.937 2.57-1.071 2.801-3.852 2.762-6.262 2.59l-32.848-2.199m27.809-53.922c1.91-1.02 3.328-1.699 4.422-1.778 1.387-.089 2.219.137 2.84.75 1.097 1.098 1.476 3.2 2.629 5.028.66 1.062 1.05 1.551 1.847 1.48 1.184-.07 1.114-.949 1.063-1.668-.16-2.5-.922-4.929-1.102-7.422-.168-2.488.242-5.019.082-7.48-.051-.66-.133-1.688-1.293-1.598-1.168.071-1.058 1.617-2.34 3.168-1.5 1.789-3.418 2.731-7.66 5.012l-34.648 18.75c-3.75 2.027-3.828 2.918-3.77 3.711.071 1.098.91 1.578 3.391 2.476l41.73 15.543c3.528 1.278 4.411 3.348 5.231 4.539.656.981.719 1.782 1.887 1.711 1.16-.101 1.113-.812 1.031-1.839-.199-3.293-1.02-6.543-1.262-9.821-.226-3.281.133-6.601-.09-9.89-.039-.512-.136-1.84-1.297-1.75-1.179.078-1.371 1.281-1.601 2.468-.36 2.211-1.809 2.532-3.481 2.653-1.308.09-2.91-.614-4.257-1.102l-23.411-8.57c-2.55-.93-3.242-1.16-3.269-1.539-.012-.422.527-.832 1.816-1.52l21.512-11.312m-4.262-25.489c3.5-.839 8.91-1.781 10 1.11.821 2.14 1.832 3.461 2.953 3.199 1.149-.277.84-1.488.5-2.898-2.043-5.301-3.152-10.832-4.57-16.289-1.32-5.461-2.07-11.09-3.41-16.582-.402-1.641-.731-3.059-2.152-2.7-1.571.391-3.079 1.039-4.629 1.43-1.571.379-3.2.469-4.758.828-.801.203-1.313.551-1.051 1.613.277 1.149 1.609 1.047 2.27.969 4.589-.601 6.949 1 8.968 9.34l1.129 4.621c.481 2-.039 2.649-2.808 3.309l-12.461 3.031c-1.129.277-1.778-.852-2.481-3.691-.988-4.122-.539-7.54 2.242-9.411 1.801-1.281 1.942-1.629 1.77-2.347-.27-1.063-1.25-.821-2.25-.563-2.141.5-4.211 1.313-6.34 1.821-2.129.531-4.332.769-6.461 1.3-1.008.231-1.988.469-1.668 1.828.25 1.071 2.391.543 4.02 1.063 3.347 1.051 4.269 3.008 5.277 7.141.832 3.41.07 4.277-1.707 4.707l-12.172 2.961c-5.258 1.261-6.269.519-7.179-3.239-1.821-7.461-.54-12.14 1.218-15.133 1.762-2.988 4.012-4.289 3.723-5.418-.211-.839-.91-.992-1.621-.8-1.43.32-4.059 1.57-5.371 2.422-2.61 1.609-5.321 5.66-4.508 9.027 1.16 4.75 2.891 9.383 4.039 14.141 1.16 4.75 1.75 9.671 2.898 14.421.532 2.219.801 3.289 1.942 3.008 1.121-.269 1.301-1.828 1.609-3.258.571-2.632 2.172-3.472 6.231-4.453l26.808-6.508m-10.918-52.949c3.95-1.75 6.16.028 7.782 2.68.507.801 1.16 1.16 2.218.699.668-.301.95-.73.25-2.359-.691-1.602-2.011-3.199-4.082-7.949-1.578-3.614-3.218-8.813-4.5-11.782-3.91-8.968-9.636-17.582-20.707-12.761-4.57 1.992-5.929 5.293-6.32 8.742-.16 1.66.269 3.758-.402 4.07-1 .438-17.7-1.211-22.809-2.902-1.031-.367-1.672-.739-1.93-1.321-.332-.75-.449-1.546-.718-2.179-.34-.797-.93-.86-1.661-.539-2.882 1.25.149 9.359 1.118 11.582.851 1.929 3.211 3.699 6.531 3.988l17.769 1.602c2.59.25 4.731.589 5.813 3.046.758 1.782.629 2.383-.242 2.75l-11.41 4.981c-5.5 2.391-7.7.641-9.122-2.078-.468-.852-1.16-1.18-2.226-.711-.863.379-.731 1.269.617 4.359 1.16 2.68 2.883 5.11 4.051 7.801 1.16 2.672 1.789 5.609 2.969 8.301.402.929.839 1.929 1.91 1.461 1.082-.461.922-1.742.832-2.5-.34-2.961 1.871-4.891 4.058-5.871zm-15.441-5.441c-.809.359-2.34 1.039-4.231-3.25-2.628-6.051-.886-9.762 5.832-12.68 4.821-2.109 10.77-1.25 13.282 4.5 1.558 3.59.75 4.641-1.672 5.711l-13.211 5.719m-32.059-28.61c.629-.23 1.68-.48 2.239-.832.429-.269.769-.859.089-1.878-.789-1.239-2.648-.489-3.847-.321-6.321.852-13.492-.801-17.211-6.597-2.781-4.301-2.391-9.524 2.121-12.403 10.039-6.461 19.859 19.52 36.668 8.723 6.351-4.102 8.75-12.942 4.07-20.231-3.347-5.23-7.777-6.812-9.09-8.863-.429-.656-.449-2.578-.808-3.129-.5-.828-.992-.769-1.801-.238-3.43 2.398-9.66 5.008-10.352 5.461-.789.5-1.109 1.219-.558 2.078.719 1.109 1.851.719 3.719.219 5.402-1.469 12.832 1.152 15.839 5.812 2.43 3.77 2.383 8.438-1.148 10.68-10.461 6.73-19.609-19.68-36.609-8.75-5.981 3.848-10.621 13.418-4.719 22.609 2.547 3.95 6.058 6.559 9.199 9.86.527.519 1.231 1.48 2.238 1.16l9.961-3.36m-36.949-44.8c-3.5 2.89-7.133.66-8.269-.5-.653-.711-1.422-.852-2.321-.078-.91.738.438 2.386 1.778 4.007 1.429 1.762 3.761 3.653 5.601 5.922 1.84 2.25 3.262 4.891 5.102 7.168.91 1.082 1.597 1.93 2.488 1.192.922-.75.422-1.942.109-2.629-1.129-2.801.7-4.953 2.571-6.492l25.461-20.872c3.519-2.859 6.109-1.769 8.23.461.66.7 1.438.821 2.34.063.91-.711-.43-2.371-1.789-3.992-1.852-2.309-4.16-4.18-6.024-6.45-1.847-2.281-3.25-4.902-5.117-7.152-.64-.789-1.332-1.637-2.242-.898-.898.742.063 2.5.359 3.211 1.122 2.738-.918 4.629-2.796 6.168l-25.481 20.871m3.059-47.289c1.789-1.93 3.461-1.172 6.031 1.238 5.148 4.769 7.059 7.332 3.469 13.91-.239.352-.078.82.519 1.352.75.718 1.25.597 1.563.257.437-.457 1.019-1.339 1.527-1.949l4.551-5.969c.781-1.089.769-1.582-.461-2.761-5.469-5.039-11.289-9.68-16.75-14.75-5.469-5.078-10.598-10.66-15.949-15.629-1.34-1.238-1.649-1.231-3.52.43l-5.601 4.98c-.399.32-.86.699-1.207 1.07-.293.328.039 1.059.457 1.45.64.621 1.082.699 1.429.421 6.25-4.082 8.973-2.371 14.114 2.43 2.949 2.731 3.308 4.18 1.679 5.93l-23.121 24.898c-3.941 4.211-7.531.789-10.051-.051-.839-.289-1.609-1.289-2.711-.097-.777.859-.136 1.429.493 2.019 3.187 2.95 6.839 5.571 10.097 8.59 3.282 3.059 6.153 6.52 9.313 9.469.66.59 1.289 1.18 2.09.332 1.089-1.18.039-1.871-.313-2.672-1.027-2.449-4.719-5.801-.777-10.039l23.129-24.859m-63.16-44.493c.07-1.726.531-2.82 1.039-3.609 1.113-1.738 3.711-1.18 6.863-.098.859.29 1.527.297 2.168-.691.64-.98-.031-1.43-.77-1.89-2.14-1.391-4.621-2.301-6.769-3.669-2.153-1.41-3.992-3.28-6.129-4.691-.672-.422-1.41-.91-2.051.07-.633.98-.133 1.41.649 2.52 1.378 2.012 1.531 3.68 1.351 9.07l-.531 18.219c-.039 1.801.019 3.152-.692 4.262l-6.238 9.648c-1.988 3.07-4.351 4.672-7.82 3.051-1.539-.731-2.86-1.52-3.649-.281-.832 1.281.879 2.39 2.61 3.511 2.75 1.782 5.84 3.09 8.789 4.989 2.07 1.351 4.531 3.652 7.289 5.441 1.723 1.121 3.449 2.23 4.281.941.789-1.222-.449-2.14-1.75-3.242-2.91-2.508-2.41-5.32-.422-8.359l4.961-7.692c.422-.628.922-1 1.539-1.289l20.551-11.238c4.539-2.48 6.789-2.68 8.609-1.859 1.563.679 2.883 1.187 3.532.187.64-.98-.41-1.668-1.508-2.371-2.774-1.797-5.852-3.09-8.613-4.86-2.77-1.796-5.207-4.09-7.981-5.866-1.109-.73-2.148-1.391-2.777-.422-.629.992 1.07 2.101 1.679 3.191.508.95.801 1.73.481 2.219-.68 1.039-1.883 1.82-3.352 2.61l-12.32 6.769c-2.027 1.121-2.879 1.359-3.25 1.121-.238-.149-.348-1.879-.277-3.32l.508-12.372M273.531 75.129c-1.812-.04-3.261-.149-4.371-.32-1.121-.137-2.019-.38-2.73-.7-.7-.308-1.481-.82-2.352-1.53-.859-.727-1.93-1.77-3.187-3.099l-.539.18c-.051 1.88-.161 3.352-.332 4.461-.161 1.117-.391 2.02-.68 2.7-.328.698-.852 1.488-1.578 2.359-.711.851-1.742 1.922-3.051 3.148l.187.531c1.821.032 3.282.13 4.403.301 1.121.149 2.027.39 2.719.7.691.32 1.468.85 2.339 1.55.86.73 1.942 1.77 3.211 3.121l.532-.222c.039-1.86.148-3.34.308-4.45.168-1.097.391-2 .719-2.71.293-.688.812-1.47 1.543-2.34.719-.848 1.738-1.91 3.058-3.137l-.199-.543m43.34 7.723c.258 1.347-.543 2.257-1.973 2.527-2.078.41-2.757.012-3.546.172-.872.16-1.633.46-1.403 1.687.25 1.301 2.121 1.242 3.012 1.293 4.09.25 8.469.23 12.148 2.29.5.257 1.282.859 1.852.75.949-.18 1.18-.532.961-1.68l-7.703-39.993c-.68-3.507.633-4.867 2.902-6.207 1.149-.66 3.051-1.191 2.84-2.32-.172-.871-.941-1-2.742-.68-3.09.598-6.071 1.75-9.149 2.368-3.109.582-6.308.59-9.398 1.222-2.012.38-2.453.82-2.301 1.61.219 1.14 1.719 1.16 3.578 1.09 2.063-.11 4.313 1.488 4.731 3.718l6.191 32.153m55.551-7.204c-.371-5.277-3.16-7.289-7.524-8.648-.679-.262-1.707-.41-1.738-.77-.012-.21.828-.628 1.34-.89 5.41-3.168 9.148-8.352 8.68-14.86-.821-11.48-10.43-14.53-20.211-13.808-8.457.598-16.207 5.277-15.508 14.969.359 5.058 3.18 8.52 7.539 10.039.609.25 1.422.32 1.43.468.011.23-.61.641-1.168 1.114-3.321 2.949-4.942 6.726-4.59 11.578.637 9.11 9.019 13.441 17.269 12.84 6.438-.442 15.039-4.168 14.481-12.032M350.219 59.84c-.571.25-1.199.582-1.707.629-1.012.07-3.723-2.89-4.071-7.649-.519-7.351 3.188-12.832 10.778-13.398 3.722-.262 9.929 1.5 10.351 7.137.289 4.07-.961 6.203-4.211 7.84zm-2.699 18.62c-.508-7.312 10.199-10.358 12.031-10.5 3.937-.28 5.949 3.259 6.199 6.75.43 6-3.852 9.759-9.621 10.15-3.707.28-8.25-1.38-8.609-6.4m45.628 3.63c-4.82-.309-5.82-4.262-7.5-4.371-.5-.028-1.25.21-1.277.8-.172 2.47 6.469 8.57 13.559 9.02 5.25.34 10.929-2.46 11.308-8.14.293-4.598-3.359-8.31-6.777-10.86-.211-.16-.402-.539-.391-.758.008-.222.16-.36.668-.41 6.84-.062 10.614-4.07 11.063-11.062.699-10.809-7.16-19.54-17.903-20.25-6.046-.387-13.238 2.902-13.386 5.191-.043.71.359 1.39 1.16 1.45 1.976.128 3.457-3.61 10.027-3.188 7.02.476 10.5 6.488 10.082 13.058-.301 4.61-2.703 8.852-7.812 8.52-.938-.07-2.16-.512-3.11-.57-.879-.06-1.269.421-1.328 1.378-.09 1.243 1.699 1.954 2.547 2.5 3.641 2.371 6.184 6.41 5.891 10.954-.258 4.02-2.59 7-6.821 6.738m59.801 2.57c1.039-5.172-1.14-7.84-4.961-10.3-.597-.43-1.558-.829-1.488-1.18.039-.22.969-.418 1.512-.54 6.078-1.64 11.047-5.66 12.308-12.03 2.239-11.29-6.242-16.758-15.871-18.65-8.328-1.651-17.027.81-18.91 10.349-.98 4.972.82 9.05 4.641 11.66.511.41 1.281.703 1.25.851-.039.211-.77.45-1.43.77-3.961 1.96-6.531 5.191-7.469 9.941-1.781 8.969 5.168 15.348 13.289 16.95 6.321 1.23 15.602-.051 17.129-7.82m-24.75-3.84c1.422-7.18 12.551-7.29 14.352-6.942 3.879.781 4.89 4.691 4.219 8.152-1.168 5.89-6.282 8.38-11.961 7.27-3.661-.723-7.59-3.52-6.61-8.48m7.5-17.262c-.621.113-1.32.28-1.82.18-1-.208-2.828-3.759-1.91-8.419 1.429-7.261 6.453-11.582 13.91-10.11 3.68.731 9.223 4.06 8.133 9.59-.813 4.028-2.571 5.759-6.141 6.481l-12.172 2.278m73.672 21.41c-1.281-1.27-2.281-2.328-2.973-3.207-.707-.883-1.207-1.672-1.507-2.383-.313-.688-.52-1.61-.661-2.73-.14-1.098-.218-2.598-.23-4.419l-.52-.218c-1.3 1.297-2.402 2.308-3.281 3.007-.879.7-1.66 1.192-2.347 1.493-.731.297-1.633.52-2.75.668-1.133.11-2.602.191-4.403.199l-.199.543c1.289 1.258 2.289 2.316 3 3.2.711.89 1.199 1.679 1.5 2.39.289.687.5 1.59.641 2.719.14 1.109.23 2.609.25 4.44l.519.227c1.289-1.308 2.379-2.328 3.262-3.02.867-.698 1.668-1.237 2.367-1.519.699-.308 1.609-.507 2.731-.668 1.109-.12 2.582-.191 4.39-.191l.211-.531" transform="matrix(.13333 0 0 -.13333 0 101.067)"/><path style="fill:#fab20b;fill-opacity:1;fill-rule:nonzero;stroke:none" d="M653.551 378.98c0-151.64-122.93-274.539-274.571-274.539-151.621 0-274.558 122.899-274.558 274.539 0 151.629 122.937 274.571 274.558 274.571 151.641 0 274.571-122.942 274.571-274.571" transform="matrix(.13333 0 0 -.13333 0 101.067)"/><g clip-path="url(#a)" transform="matrix(.13333 0 0 -.13333 0 101.067)"><path style="fill:#181210;fill-opacity:1;fill-rule:nonzero;stroke:none" d="m321.578 399.57-1.828-170.41s-.172-1.32.82-1.98c.989-.649 4.899-2.149 17.989-2.149 13.07 0 17.011 1.629 18.011 2.219.891.551.891 1.91.891 1.91l-1.449 170.559c-1.91 1.39-6.512 3.41-17.121 3.41-10.981 0-15.52-2.16-17.313-3.559m17.152 53.942c-20.98 0-25.91-6.922-25.91-6.922l-.179-1.649s4.121-.5 5.929-4.632c2.489-5.61 3.149-27.079 3.149-27.079l-.02-1.5c2.731 1.508 7.801 3.071 17.192 3.071 9.199 0 14.238-1.481 17.007-2.973l-.007 1.902s-.493 18.5 3.289 26.579c2.082 4.41 5.468 5.121 5.468 5.121l.161 2.14s-5.11 5.942-26.079 5.942m62.29-53.793-1.461-170.559s0-1.359.882-1.91c1.008-.59 4.938-2.219 18.028-2.219s17 1.5 17.992 2.149c.988.66.82 1.98.82 1.98l-1.82 170.41c-1.789 1.391-6.332 3.559-17.32 3.559-10.621 0-15.219-2.02-17.121-3.41m43.191 46.871s-4.941 6.922-25.902 6.922c-20.981 0-26.09-5.934-26.09-5.934l.172-2.148s3.359-.711 5.437-5.121c3.801-8.079 3.301-26.579 3.301-26.579l-.008-1.902c2.758 1.492 7.809 2.981 17.02 2.981 9.379 0 14.449-1.559 17.187-3.079l-.019 1.508s.652 21.473 3.14 27.071c1.813 4.132 5.93 4.632 5.93 4.632l-.168 1.649m105.719-9.059s-.071 1.129-1.168 1.129H510c-1.012 0-1.148-1.129-1.148-1.129l5.699-213.441s-.199-1.61 1.347-1.61h54.614c1.668 0 1.617 1.61 1.617 1.61zm11.629-206.383H521.57c-1.289 0-1.199 1.461-1.199 1.461l-5.949 197.801s.277 1.051 1.137 1.051h27c.75 0 1.019-.91 1.019-.91l19.41-197.692s.223-1.711-1.429-1.711m-318.137-7.07 5.707 213.442s-.129 1.14-1.141 1.14h-38.75c-1.109 0-1.179-1.14-1.179-1.14l-22.2-213.442s-.058-1.609 1.61-1.609h54.609c1.551 0 1.344 1.609 1.344 1.609m-5.813 8.531s.102-1.461-1.199-1.461h-39.988c-1.641 0-1.422 1.704-1.422 1.704l19.398 197.699s.293.91 1.032.91h26.992c.867 0 1.137-1.051 1.137-1.051l-5.95-197.801"/><path style="fill:#181210;fill-opacity:1;fill-rule:nonzero;stroke:none" d="m584.578 492.98-121.898-.179 1.16 8.539 116.941.148s.328 5.34.328 6.672c0 6.949 3.789 11.891 3.789 11.891l14.872 18.988v5.621c0 .621-.321.981-.93.981H457.809c-.797 0-1.008-.422-1.008-.832V533.73H301.172v11.079c0 .41-.223.832-1.024.832H159.109c-.597 0-.918-.36-.918-.981v-5.621l14.868-18.988s3.793-4.942 3.793-11.891c0-1.332.328-6.672.328-6.672l116.968-.148 1.18-8.539-121.949.179-39.207-290.25h33.348l27.5 246.45h68.699L260.5 202.73h27.129l7.691 11.739.008 249.859H462.68l-.032-249.867 7.692-11.731h27.121l-3.223 246.45h68.703l27.5-246.45h33.348zm-312.297-23.332s-4.211-2.847-5.953-6.418c-1.726-3.601-1.59-7.558-1.59-7.558h-69.59s-.128 4.328-2.25 7.668c-2.097 3.332-7.046 6.308-7.046 6.308v2.231s.289 1.109 1.148 1.109h15.379c4.512-6.976 13.23-11.648 26.312-11.648 13.09 0 21.797 4.672 26.309 11.648h15.77c1.242 0 1.511-1.226 1.511-1.226zm59.957 53.75c.391.262 8.621-3.046 17.551-2.847 10.723.258 13.91 3.019 16.742.648 1.899-1.57.239-4.48.18-7.078-.063-2.473 1.961-4.543 4.719-4.48 1.711.039 2.769 1.05 3.3 1.718a5.961 5.961 0 0 0-2.242 4.672 6.04 6.04 0 0 0 6.032 6.039 6.031 6.031 0 0 0 6.031-6.039c0-1.89-.879-3.562-2.242-4.672.511-.668 1.589-1.679 3.293-1.718 2.769-.063 4.777 2.007 4.718 4.48-.07 2.598-1.718 5.508.18 7.078 2.84 2.371 6.012-.39 16.762-.648 8.918-.199 17.136 3.109 17.539 2.847.39-.277-2.903-11.929-20.43-16.308-13.441-3.34-25.812-3.27-25.812-3.27h-.079s-12.378-.07-25.8 3.27c-17.551 4.379-20.821 16.031-20.442 16.308m130.442-40.07H295.328v9.391H462.68Zm109.422-13.68s-4.93-2.976-7.043-6.308c-2.118-3.34-2.239-7.668-2.239-7.668h-69.601s.133 3.957-1.59 7.558c-1.731 3.571-5.957 6.418-5.957 6.418v2.114s.289 1.226 1.527 1.226h15.75c4.512-6.976 13.242-11.648 26.313-11.648 13.09 0 21.797 4.672 26.316 11.648h15.383c.859 0 1.141-1.109 1.141-1.109v-2.231"/></g><path style="fill:#181210;fill-opacity:1;fill-rule:nonzero;stroke:none" d="M311.391 574.66c-.403-11.461 6.968-7.558 6.968-10.32 0-.27.27-1.07-1.609-1.07-2.41 0-3.82.269-6.891.269-3.289 0-5.629-.269-6.64-.269-1.008 0-1.27.531-1.27.941 0 2.41 5.492.738 5.762 7.75l.937 26.937c.411 11.051-6.757 7.903-6.757 10.864 0 .386.32.929.789.929.879 0 1.89-.281 4.031-.281 1.539 0 4.008.281 6.219.281.75 0 1.41.071 2.359-1.953l14.723-32.129c.277-.609.468-1.078.867-1.078.402 0 1 1.199 1.082 1.41l15.539 32.411c.191.468.379 1.339 1.672 1.339 1.598 0 2.879-.281 3.887-.281 1.211 0 2.472.281 4.339.281 1.813 0 1.954-.281 1.954-.8 0-2.403-6.563.187-6.293-7.5l1.132-29.68c.329-8.77 6.5-5.813 6.5-8.313 0-1.128-.871-1.128-3.222-1.128-1.938 0-3.821.269-5.75.269-4.36 0-5.957-.269-7.5-.269-1.418 0-3.09-.2-3.09 1 0 2.281 5.23.07 4.832 7.5l-1 20.3c-.082 2.008-.152 3.008-.539 3.008-.274 0-1.094-1.34-2.094-3.539l-12.648-26.461c-.399-.867-.66-1.879-1.731-1.879-1.019 0-1.347 1.141-1.687 1.879l-12.992 28.863c-.2.418-.469 1.137-.731 1.137-.469 0-.469-1.199-.469-1.668l-.679-18.75" transform="matrix(.13333 0 0 -.13333 0 101.067)"/><path style="fill:#181210;fill-opacity:1;fill-rule:nonzero;stroke:none" d="M403.422 596.309c.066-.688.328-2.231-.813-2.231-1.07 0-1.531 1.41-2 2.293-3.359 6.41-9.25 12.25-17.007 12.25-9.852 0-15.282-9.383-15.282-18.351 0-9.442 5.352-22.7 18.149-22.7 10.383 0 14.953 8.758 16.679 8.758.34 0 .93-.328.93-.726 0-2.672-7.098-12.801-21.359-12.801-19.617 0-22.629 17.14-22.629 22.449 0 11.25 6.89 26.051 23.769 26.051 8.11 0 13.27-4.09 15.282-4.09 1.257 0 1.328 2.211 2.281 2.211.328 0 .789-.07.789-.402l1.211-12.711m30.129-31.969c-.731-1.738-1.071-2.141-1.801-2.141-.672 0-1.352.672-2.57 3.492l-16.668 38.989c-1.133 2.582-2.082 3.332-4.801 4-.211.058-1.082.468-1.082.941 0 1.598 2.082 1.07 3.07 1.07 2.211 0 4.492-.281 6.77-.281 4.281 0 6.242.281 7.301.281 2.14 0 2.48.071 2.48-1.07 0-1.812-4.02-.801-4.02-3.609 0-2.024.879-5.172 2.551-9.242l8.699-21.571c.211-.469.54-1.398.93-1.398.41 0 .66.929.879 1.398l9.172 20.371c2.008 4.469 2.148 6.821 2.148 7.879 0 6.313-6.769 3.813-6.769 6.172 0 1.27 1.949 1.07 2.75 1.07 1.941 0 3.832-.281 5.762-.281 1.867 0 3.738.281 5.628.281 1.411 0 2.34.2 2.34-.929 0-1.551-2.75-1.211-4.55-5.16l-18.219-40.262M330.73 181.41c0 7.77-7.55 5.211-7.55 7.699 0 .7.699 1.051 1.531 1.051 3.199 0 3.738-.301 8.098-.301 4.66 0 9.371.301 14 .301 15.179 0 16.57-9.789 16.57-12.98 0-4.418-2.02-6.981-4.02-8.641-2.019-1.578-4.031-2.219-4.031-2.918 0-.41 5.891-10.473 10.883-19.191.609-1.102 1.937-1.102 2.5-1.102.699 0 1.379.41 2.078.41.609 0 1.02-.41 1.02-.976 0-2.141-4.547-3.66-7.329-3.66-5.468 0-7.699 4.359-9.851 8.378l-5.809 10.95c-1.59 3.031-2.84 3.648-6.3 3.648-3.668 0-3.258-.469-3.258-2.898v-11.989c0-7.41 6.859-4.57 6.859-7.05 0-.641-.551-1.039-2.141-1.039-1.199 0-3.05.269-5.96.269-3.75 0-7.219-.269-10.68-.269-.762 0-2.219-.211-2.219 1.168 0 2.199 5.609-.059 5.609 8.652zm8.532-12.39c0-1.731 2.558-1.731 4.636-1.731 10.543 0 10.954 3.883 10.954 7.961 0 6.809-3.891 11.941-10.872 11.941-2.582 0-4.718 0-4.718-4.16V169.02m48.367-18.442c0-8.648 7-6.039 7-8.437 0-1.192-.699-1.039-1.66-1.039-4.848 0-7.899.269-9.418.269-2.781 0-8.11-.269-8.551-.269-.191 0-1.449-.153-1.449 1.039 0 2 5.558.48 5.558 9.148v30.473c0 7.347-7.211 4.5-7.211 7.058 0 .418.282 1.34 1.942 1.34.469 0 4.289-.301 9.551-.301.98 0 5.898.231 10.82.301 8.867.121 17.461-3.332 17.461-13.461 0-8.648-6.442-13.918-14.703-13.918-6.797 0-7.117 1.731-7.117 2 0 .481.128 1.328.976 1.328.531 0 1.731-.418 3.25-.418 8.363 0 9 7.829 9.07 9.629.063 1.801-.558 11.918-11.296 11.918-3.122 0-4.223-1.379-4.223-4.5v-32.16m45.242-.898c0-8.52 7.758-5.328 7.758-7.539 0-.77-.617-1.039-2.207-1.039-2.57 0-5.133.269-10.551.269-2.973 0-5.949-.269-7.742-.269-.629 0-.77.476-.77.828 0 2.422 4.993.621 4.993 7.191v33.27c0 6.3-7.832 4.379-7.832 6.781 0 1.187 1.742.988 2.359.988 2.699 0 5.391-.301 7.832-.301 2.48 0 5 .301 8.937.301 2.063 0 2.422-.16 2.422-.988 0-2.344-5.199.137-5.199-6.434V149.68m34.199 440.519 64.891-3.449-64.891-3.461s-10.91-.098-10.91 3.461c0 3.539 10.91 3.449 10.91 3.449m-179.832-6.91-64.879 3.449 64.879 3.461s10.922.082 10.922-3.461c0-3.547-10.922-3.449-10.922-3.449m167.793-414.211 64.891-3.457-64.891-3.449s-10.922-.102-10.922 3.449c0 3.559 10.922 3.457 10.922 3.457M305.32 162.16l-64.898 3.461 64.898 3.449s10.899.102 10.899-3.449c0-3.562-10.899-3.461-10.899-3.461" transform="matrix(.13333 0 0 -.13333 0 101.067)"/></svg>